<svg width="82" height="82" viewBox="0 0 82 82" fill="none" xmlns="http://www.w3.org/2000/svg">
<path fill-rule="evenodd" clip-rule="evenodd" d="M41 82C63.6437 82 82 63.6437 82 41C82 38.7778 81.8232 36.597 81.4829 34.4707L27.3681 68.9955L23.0653 62.2512L79.3115 26.3666C78.8596 25.1841 78.3545 24.028 77.7992 22.9011L39.3803 47.412L35.0775 40.6677L73.5787 16.1042C72.9709 15.31 72.3348 14.5388 71.6717 13.7919L23.2624 44.2707L19 37.5008L65.574 8.17746C58.726 3.04223 50.2183 0 41 0C18.3563 0 0 18.3563 0 41C0 63.6437 18.3563 82 41 82Z" fill="#312DF2"/>
</svg>
